<?xml version="1.0" encoding="utf-8"?>
<!-- Generator: Adobe Illustrator 15.1.0, SVG Export Plug-In . SVG Version: 6.00 Build 0)  -->
<!DOCTYPE svg PUBLIC "-//W3C//DTD SVG 1.1//EN" "http://www.w3.org/Graphics/SVG/1.1/DTD/svg11.dtd">
<svg version="1.1"
	 id="Layer_1" sodipodi:docname="Princeton_Tigers_Logo.svg" inkscape:version="0.48.1 " xmlns:dc="http://purl.org/dc/elements/1.1/" xmlns:cc="http://creativecommons.org/ns#" xmlns:rdf="http://www.w3.org/1999/02/22-rdf-syntax-ns#" xmlns:svg="http://www.w3.org/2000/svg" xmlns:sodipodi="http://sodipodi.sourceforge.net/DTD/sodipodi-0.dtd" xmlns:inkscape="http://www.inkscape.org/namespaces/inkscape"
	 xmlns="http://www.w3.org/2000/svg" xmlns:xlink="http://www.w3.org/1999/xlink" x="0px" y="0px" width="107.257px"
	 height="138.638px" viewBox="3.428 1.783 107.257 138.638" enable-background="new 3.428 1.783 107.257 138.638"
	 xml:space="preserve">
<path fill="#FFFFFF" stroke="#000000" stroke-width="0.574" stroke-miterlimit="10" d="M98.151,13.99
	C90.272,6.304,79.112,2.07,66.736,2.07H9.662H3.715v31.188h13.164v75.702H3.715v31.174h62.592v-31.174H53.141V87.363h13.595
	c12.376,0,23.537-4.231,31.415-11.918c7.9-7.703,12.247-18.617,12.247-30.729C110.398,32.608,106.051,21.693,98.151,13.99z
	 M62.045,56.297h-8.904V33.259h8.904c9.131,0,14.578,4.307,14.578,11.521C76.624,51.991,71.176,56.297,62.045,56.297z"/>
<path fill="#FF5E18" stroke="#000000" stroke-width="0.574" stroke-miterlimit="10" d="M6.115,137.733V111.36h13.164V30.858H6.115
	V4.47h60.621c11.749,0,22.311,3.991,29.739,11.238c7.431,7.245,11.522,17.547,11.522,29.008c0,11.463-4.092,21.766-11.522,29.01
	c-7.426,7.246-17.987,11.236-29.739,11.236H50.741v26.397h13.166v26.373H6.115z M50.741,58.697h11.304
	c10.473,0,16.979-5.333,16.979-13.917c0-8.587-6.506-13.921-16.979-13.921H50.741V58.697z"/>
<path id="path3531" stroke="#231F20" stroke-width="0.574" stroke-miterlimit="10" d="M50.713,56.09V44.748v-3.781
	C38.762,25.96,25.957,13.589,15.837,4.47H9.662H6.143v14.188C22.585,29.198,38.227,43.366,50.713,56.09"/>
<path id="path3535" stroke="#231F20" stroke-width="0.574" stroke-miterlimit="10" d="M53.245,58.692
	c10.613,11.02,18.649,20.643,22.498,25.402c0.379-0.07,0.754-0.146,1.127-0.225c-3.761-8.889-8.357-17.316-13.431-25.215
	c-0.457,0.022-0.92,0.036-1.394,0.036L53.245,58.692L53.245,58.692z"/>
<path id="path3539" stroke="#231F20" stroke-width="0.574" stroke-miterlimit="10" d="M45.114,4.501H31.293
	c8.193,7.686,16.853,16.638,25.431,26.332h5.321c10.652,0,17.009,5.47,17.009,13.946c0,3.613-1.159,6.679-3.312,9.009
	c5.916,7.642,11.567,15.465,16.746,23.267c5.17-3.782,9.23-8.799,11.895-14.763C87.627,36.398,65.515,17.649,45.114,4.501"/>
<path id="path3543" stroke="#231F20" stroke-width="0.574" stroke-miterlimit="10" d="M23.566,44.908
	C33.638,58.5,43.09,72.036,51.61,84.933h9.938C41.767,62.399,23.566,44.908,23.566,44.908"/>
<path id="path3547" stroke="#231F20" stroke-width="0.574" stroke-miterlimit="10" d="M19.31,96.6v7.527
	c10.403,12.332,18.024,23.248,23.977,33.584h16.492C45.445,120.672,31.041,106.825,19.31,96.6"/>
<path id="path3551" stroke="#231F20" stroke-width="0.574" stroke-miterlimit="10" d="M19.31,58.873v17.812
	C29.069,86.821,39,98.599,48.863,112.247C48.863,112.247,38.782,85.747,19.31,58.873"/>
<path id="path3555" stroke="#231F20" stroke-width="0.574" stroke-miterlimit="10" d="M25.51,137.711
	c-3.548-7.207-8.616-16.406-15.419-26.322H6.143v9.922c4.861,5.079,9.702,10.539,14.465,16.4H25.51z"/>
<path id="path3559" stroke="#231F20" stroke-width="0.574" stroke-miterlimit="10" d="M72.79,7.647
	c19.053,20.549,28.614,38.137,33.367,49.863c1.184-3.957,1.813-8.243,1.813-12.795c0-1.094-0.037-2.174-0.107-3.236
	C89.827,16.344,72.79,7.647,72.79,7.647"/>
</svg>
